<svg width="118" height="16" viewBox="0 0 118 16" fill="none" xmlns="http://www.w3.org/2000/svg">
<path d="M3.20341 12.5264C2.11468 12.5264 1.25391 12.2344 0.570312 11.9173V10.165H0.629367C1.25391 10.966 2.16533 11.5585 3.35529 11.5585C4.2499 11.5585 4.95039 11.1497 4.95039 10.3152C4.95039 9.64764 4.4862 9.35562 3.6676 8.98845L2.46916 8.47111C1.32985 7.97046 0.688421 7.23618 0.688421 6.27659C0.688421 4.79126 1.86998 3.89844 3.59159 3.89844C4.44403 3.89844 5.25422 4.11537 5.81123 4.39078V5.94279H5.7521C5.21197 5.22521 4.41866 4.86642 3.53253 4.86642C2.62952 4.86642 2.03874 5.2586 2.03874 5.95118C2.03874 6.64376 2.52822 6.96078 3.20341 7.25288L4.44403 7.78691C5.57493 8.28756 6.30911 8.91336 6.30911 10.0565C6.30911 11.6252 4.95039 12.5264 3.20341 12.5264Z" fill="white"/>
<path d="M7.10938 8.22917C7.10938 5.39207 9.32894 3.89844 11.6498 3.89844C12.4853 3.89844 13.304 4.09037 14.1057 4.45755V6.05126H14.0466C13.4896 5.35868 12.6963 4.86642 11.6076 4.86642C9.81842 4.86642 8.69599 6.20981 8.69599 8.11231C8.69599 10.0064 9.81001 11.4167 11.8355 11.4167C12.6119 11.4167 13.4305 11.1664 14.1817 10.6239L14.4686 11.2748C13.8694 11.9674 12.8567 12.5264 11.3545 12.5264C9.05047 12.5264 7.10938 10.8659 7.10938 8.22917Z" fill="white"/>
<path d="M14.7656 8.21247C14.774 5.68416 16.4788 3.89844 19.0022 3.89844C21.5256 3.89844 23.2304 5.68416 23.2388 8.21247C23.2304 10.7408 21.5256 12.5264 19.0022 12.5264C16.4788 12.5264 14.774 10.7408 14.7656 8.21247ZM21.6522 8.21247C21.6522 6.35167 20.7577 4.86642 19.0022 4.86642C17.2468 4.86642 16.3522 6.35167 16.3522 8.21247C16.3522 10.0733 17.2468 11.5585 19.0022 11.5585C20.7576 11.5585 21.6522 10.0732 21.6522 8.21247Z" fill="white"/>
<path d="M23.5625 4.03906H35.2596V5.76632H35.2005C34.7532 5.1989 34.1034 5.07374 33.1666 5.04043L32.6181 5.02374V10.6561C32.6181 11.2819 32.6602 11.9077 32.9641 12.3166V12.3834H30.8036V12.3166C31.1074 11.9077 31.1496 11.2819 31.1496 10.6561V4.99866L29.4111 4.99035L27.6725 4.99866V10.6561C27.6725 11.2819 27.7147 11.9077 28.0185 12.3166V12.3834H25.858V12.3166C26.1618 11.9077 26.204 11.2819 26.204 10.6561V5.02374L25.6555 5.04043C24.7187 5.07374 24.0689 5.1989 23.6216 5.76632H23.5625L23.5625 4.03906Z" fill="white"/>
<path d="M36.5179 10.6561V5.76632C36.5179 5.14052 36.4757 4.51471 36.1719 4.10583V4.03906H38.3324V4.10583C38.0286 4.51471 37.9864 5.14052 37.9864 5.76632V10.6561C37.9864 11.2819 38.0286 11.9077 38.3324 12.3166V12.3834H36.1719V12.3166C36.4757 11.9077 36.5179 11.2819 36.5179 10.6561Z" fill="white"/>
<path d="M42.18 12.5264C41.0912 12.5264 40.2305 12.2344 39.5469 11.9173V10.165H39.6059C40.2305 10.966 41.1419 11.5585 42.3318 11.5585C43.2265 11.5585 43.9269 11.1497 43.9269 10.3152C43.9269 9.64764 43.4628 9.35562 42.6442 8.98845L41.4457 8.47111C40.3064 7.97046 39.665 7.23618 39.665 6.27659C39.665 4.79126 40.8465 3.89844 42.5681 3.89844C43.4206 3.89844 44.2308 4.11537 44.7878 4.39078V5.94279H44.7287C44.1885 5.22521 43.3952 4.86642 42.5091 4.86642C41.6061 4.86642 41.0153 5.2586 41.0153 5.95118C41.0153 6.64376 41.5048 6.96078 42.18 7.25288L43.4206 7.78691C44.5515 8.28756 45.2857 8.91336 45.2857 10.0565C45.2857 11.6252 43.9269 12.5264 42.18 12.5264Z" fill="white"/>
<path d="M52.1649 10.6561V8.54496H48.0801V10.6561C48.0801 11.2819 48.1223 11.9077 48.4261 12.3166V12.3834H46.2656V12.3166C46.5695 11.9077 46.6116 11.2819 46.6116 10.6561V5.76632C46.6116 5.14052 46.5695 4.51471 46.2656 4.10583V4.03906H48.4261V4.10583C48.1223 4.51471 48.0801 5.14052 48.0801 5.76632V7.59375H52.1649V5.76632C52.1649 5.14052 52.1226 4.51471 51.8189 4.10583V4.03906H53.9794V4.10583C53.6755 4.51471 53.6333 5.14052 53.6333 5.76632V10.6561C53.6333 11.2819 53.6755 11.9077 53.9794 12.3166V12.3834H51.8189V12.3166C52.1226 11.9077 52.1649 11.2819 52.1649 10.6561Z" fill="white"/>
<path d="M67.2188 4.10584V4.03906H69.4214V4.10584C69.2864 4.31446 69.2273 4.5064 69.2273 4.73165C69.2273 4.94858 69.2695 5.19891 69.5142 5.86649L71.2275 10.5977H71.2612L72.2065 8.20286L71.2528 5.74132C70.9659 4.99035 70.7549 4.51471 70.3751 4.10583V4.03906H72.544V4.10583C72.2739 4.68995 72.485 5.15721 72.6622 5.71624L72.8816 6.41721L73.0167 6.88447H73.0251L73.1601 6.41721L73.3796 5.71624C73.5568 5.15721 73.7677 4.68995 73.4977 4.10583V4.03906H75.5401V4.10583C75.1603 4.51471 74.9578 4.99035 74.6623 5.74132L73.7677 8.01931L74.8058 10.5977H74.8396L76.5359 5.86649C76.7722 5.19891 76.8229 4.94858 76.8229 4.73165C76.8229 4.5064 76.7638 4.31446 76.6287 4.10584V4.03906H78.7049V4.10584C78.3335 4.51471 78.1394 4.99035 77.8609 5.74132L75.4388 12.3834H74.1307L73.2699 10.1137L72.9744 9.3377H72.966L72.6707 10.1137L71.8098 12.3834H70.4848L68.0627 5.74132C67.7842 4.99035 67.59 4.51471 67.2188 4.10584Z" fill="white"/>
<path d="M79.7444 10.6561V5.76632C79.7444 5.14052 79.7023 4.51471 79.3984 4.10583V4.03906H81.5589V4.10583C81.2551 4.51471 81.2129 5.14052 81.2129 5.76632V10.6561C81.2129 11.2819 81.2551 11.9077 81.5589 12.3166V12.3834H79.3984V12.3166C79.7023 11.9077 79.7444 11.2819 79.7444 10.6561Z" fill="white"/>
<path d="M83.1663 10.6561V5.76632C83.1663 5.14052 83.1241 4.51471 82.8203 4.10583V4.03906H85.9851C88.652 4.03906 90.5593 5.59108 90.5593 8.21124C90.5593 10.8897 88.6267 12.3834 85.9851 12.3834H82.8203V12.3166C83.1241 11.9077 83.1663 11.2819 83.1663 10.6561ZM88.9811 8.19455C88.9811 6.15019 88.0022 4.96527 85.5885 4.96527H84.6348V11.4404H85.5885C88.0022 11.4404 88.9811 10.2806 88.9811 8.19455Z" fill="white"/>
<path d="M91.5391 8.21247C91.5475 5.68416 93.2523 3.89844 95.7757 3.89844C98.2991 3.89844 100.004 5.68416 100.012 8.21247C100.004 10.7408 98.2991 12.5264 95.7757 12.5264C93.2523 12.5264 91.5475 10.7408 91.5391 8.21247ZM98.4256 8.21247C98.4256 6.35167 97.5311 4.86642 95.7757 4.86642C94.0202 4.86642 93.1257 6.35167 93.1257 8.21247C93.1257 10.0733 94.0203 11.5585 95.7757 11.5585C97.531 11.5585 98.4256 10.0732 98.4256 8.21247Z" fill="white"/>
<path d="M99.9375 4.10584V4.03906H102.14V4.10584C102.005 4.31446 101.946 4.5064 101.946 4.73165C101.946 4.94858 101.988 5.19891 102.233 5.86649L103.946 10.5977H103.98L104.925 8.20286L103.972 5.74132C103.685 4.99035 103.474 4.51471 103.094 4.10583V4.03906H105.263V4.10583C104.993 4.68995 105.204 5.15721 105.381 5.71624L105.6 6.41721L105.735 6.88447H105.744L105.879 6.41721L106.098 5.71624C106.276 5.15721 106.486 4.68995 106.216 4.10583V4.03906H108.259V4.10583C107.879 4.51471 107.677 4.99035 107.381 5.74132L106.486 8.01931L107.525 10.5977H107.558L109.255 5.86649C109.491 5.19891 109.542 4.94858 109.542 4.73165C109.542 4.5064 109.483 4.31446 109.347 4.10584V4.03906H111.424V4.10584C111.052 4.51471 110.858 4.99035 110.58 5.74132L108.158 12.3834H106.849L105.989 10.1137L105.693 9.3377H105.685L105.389 10.1137L104.529 12.3834H103.204L100.781 5.74132C100.503 4.99035 100.309 4.51471 99.9375 4.10584Z" fill="white"/>
<path d="M114.321 12.5264C113.232 12.5264 112.371 12.2344 111.688 11.9173V10.165H111.747C112.371 10.966 113.283 11.5585 114.472 11.5585C115.367 11.5585 116.068 11.1497 116.068 10.3152C116.068 9.64764 115.603 9.35562 114.785 8.98845L113.586 8.47111C112.447 7.97046 111.806 7.23618 111.806 6.27659C111.806 4.79126 112.987 3.89844 114.709 3.89844C115.561 3.89844 116.371 4.11537 116.928 4.39078V5.94279H116.869C116.329 5.22521 115.536 4.86642 114.65 4.86642C113.747 4.86642 113.156 5.2586 113.156 5.95118C113.156 6.64376 113.645 6.96078 114.321 7.25288L115.561 7.78691C116.692 8.28756 117.426 8.91336 117.426 10.0565C117.426 11.6252 116.068 12.5264 114.321 12.5264Z" fill="white"/>
<path d="M63.9631 13.1675C63.9575 12.1325 63.5693 11.5105 63.5664 10.9778C63.5645 10.6354 63.663 10.3456 64.1598 9.67328L64.152 9.66577C63.9298 9.86477 63.7458 9.98751 63.5616 10.0874C63.5879 9.25775 63.5666 8.15436 63.4693 7.23408L63.4615 7.23412C63.2761 8.53644 62.997 9.57291 62.6093 10.4882C61.5107 10.8821 60.3246 10.7438 59.4376 10.406C59.9812 9.85515 60.4696 9.07636 60.734 8.15411L60.7263 8.15415C60.3144 8.84883 59.7554 9.37691 59.1564 9.63122C58.362 9.331 57.7744 8.8546 57.7724 8.48931C57.7707 8.1621 58.2709 8.13665 58.269 7.79418C58.2667 7.36802 57.4542 6.57328 55.7891 6.095C57.7242 3.8169 60.9825 5.70988 61.7129 4.12309L61.7052 4.12313C61.5826 4.23799 61.4061 4.32262 61.2368 4.32351C60.8827 4.32538 60.7159 4.02841 60.67 3.79765C61.8598 3.77301 62.123 3.00987 62.6921 3.00687C63.0847 3.0048 63.3486 3.41433 63.5102 3.41347C63.5949 3.41303 63.625 3.28348 63.5926 2.98687C64.0552 3.14426 64.3203 3.76687 64.3226 4.17785C64.325 4.62682 64.2107 4.84814 64.2143 5.52545C64.2188 6.35497 64.4237 7.24423 64.9723 9.06781C64.8423 9.20552 64.6429 9.35114 64.4743 9.48143C64.4415 10.5318 64.417 11.6963 64.5601 12.5555C64.6 12.814 64.7392 12.9351 65.0634 13.1008C65.3952 13.2664 65.4414 13.2586 65.4417 13.3119C65.4419 13.35 65.3806 13.3959 65.242 13.3966L64.0721 13.4028C63.9413 13.4035 63.9638 13.2969 63.9631 13.1675ZM59.7119 2.74861C59.8664 2.84675 60.0052 2.89164 60.1437 2.89091C60.721 2.88787 60.8863 2.14115 61.703 2.29668L61.703 2.28913C61.3713 2.15385 61.2625 1.96415 61.3301 1.65175C61.4616 1.76527 61.5849 1.80269 61.6927 1.80212C62.1391 1.79977 62.5664 1.11255 63.1668 1.10939C63.4516 1.10789 63.6831 1.21317 63.8002 1.51697C63.847 1.63849 63.8322 1.75277 63.8713 1.85907C63.8947 1.91228 63.9335 1.96533 63.9877 2.03355C64.0109 2.0638 63.9495 2.09464 63.9035 2.11769C63.8967 2.29274 63.8974 2.4145 63.8591 2.46041C63.8133 2.5139 63.6517 2.52994 63.4208 2.54641C63.4691 2.919 63.4854 3.09401 63.3931 3.0945C63.2622 3.09519 63.0679 2.75373 62.6292 2.75604C62.1058 2.7588 61.5786 3.48454 60.7012 3.48916C60.2394 3.4916 59.7917 3.26569 59.7119 2.74861ZM60.1242 13.5226C60.1236 13.4236 60.2386 13.3317 60.3228 13.2476C60.7821 12.7885 60.7788 12.1721 60.8461 11.8141C60.9506 11.2047 61.3574 10.9971 61.8959 10.9257C61.821 11.3142 61.6614 11.7032 61.4862 12.0466C61.2577 12.4968 61.244 12.7936 61.2383 13.1666C61.2388 13.2579 61.2003 13.2734 61.1159 13.3194C61.0161 13.3733 60.9857 13.4267 60.9478 13.5334C60.9175 13.6249 60.8792 13.6632 60.733 13.6639L60.3481 13.666C60.2096 13.6667 60.1247 13.6215 60.1242 13.5226Z" fill="#FF222F"/>
</svg>
